<svg xmlns="http://www.w3.org/2000/svg" viewBox="-79 0 512 512">
  <path fill="#e3e4d8" d="M353.102 485.516H0V0h273.656l79.446 79.45zm0 0"/>
  <path fill="#d0cebd" d="M273.656 0v79.45h79.446zm0 0"/>
  <path fill="#2c81e4" d="M0 353.102h353.102V512H0zm0 0"/>
  <path fill="#fff" d="M300.137 485.516h-35.23c-14.645 0-26.563-11.914-26.563-26.563v-52.805c0-14.644 11.918-26.562 26.562-26.562h35.23a8.829 8.829 0 0 1 0 17.656h-35.23c-4.918 0-8.906 4-8.906 8.906v52.805c0 4.91 3.988 8.91 8.906 8.91h35.23a8.829 8.829 0 0 1 8.829 8.828c0 4.872-3.953 8.825-8.828 8.825zm0 0"/>
  <path fill="#2c81e4" d="M79.45 132.414h194.206v167.723H79.45zm0 0"/>
  <g fill="#fff">
    <path d="M203.035 264.828a8.841 8.841 0 0 1-8.379-6.039l-18.105-54.324-18.106 54.324a8.836 8.836 0 0 1-8.375 6.04 8.841 8.841 0 0 1-8.379-6.04l-26.484-79.45c-1.543-4.624.965-9.62 5.59-11.163 4.617-1.547 9.621.953 11.168 5.578l18.105 54.332 18.106-54.324a8.836 8.836 0 0 1 8.375-6.04 8.841 8.841 0 0 1 8.379 6.04l18.105 54.324 18.106-54.324c1.543-4.625 6.566-7.114 11.168-5.578 4.625 1.543 7.12 6.539 5.586 11.168l-26.485 79.445a8.836 8.836 0 0 1-8.375 6.031zm0 0M61.793 485.516h-8.828c-4.871 0-8.828-3.954-8.828-8.825v-88.277c0-4.875 3.957-8.828 8.828-8.828h8.828c29.203 0 52.965 23.754 52.965 52.965 0 29.21-23.762 52.965-52.965 52.965zm0-17.653h.09zm0-70.62v70.62c19.473 0 35.309-15.84 35.309-35.312 0-19.473-15.836-35.309-35.309-35.309zm0 0M185.379 485.516h-17.656c-14.598 0-26.48-11.88-26.48-26.48V406.07c0-14.601 11.87-26.484 26.48-26.484h17.656c14.601 0 26.484 11.883 26.484 26.484v52.965c0 14.602-11.875 26.48-26.484 26.48zm-17.656-88.274c-4.864 0-8.825 3.953-8.825 8.828v52.965c0 4.863 3.954 8.828 8.825 8.828h17.656c4.863 0 8.828-3.957 8.828-8.828V406.07c0-4.867-3.953-8.828-8.828-8.828zm0 0"/>
  </g>
</svg>