<svg xmlns="http://www.w3.org/2000/svg" viewBox="0 0 100 100"><path d="M41.367 15.188c0 5.613-4.55 10.164-10.164 10.164-5.617 0-10.168-4.55-10.168-10.164 0-5.617 4.55-10.168 10.168-10.168 5.613 0 10.164 4.55 10.164 10.164"/><path d="M40.391 15.188c-.031 3.797-2.422 7.344-6.035 8.633-3.664 1.308-7.754.176-10.254-2.805-2.48-2.96-2.742-7.344-.742-10.617 1.964-3.234 5.879-4.992 9.601-4.238 4.285.87 7.399 4.66 7.43 9.027.008 1.258 1.965 1.258 1.953 0C42.313 10.52 39.375 6.34 35 4.711c-4.328-1.602-9.433-.215-12.352 3.36-2.969 3.632-3.43 8.847-.969 12.89 2.442 4.016 7.22 6.055 11.805 5.137 5.125-1.035 8.829-5.722 8.868-10.906 0-1.265-1.953-1.265-1.961-.004zM41.367 50c0 5.613-4.55 10.164-10.164 10.164-5.617 0-10.168-4.55-10.168-10.164s4.55-10.164 10.168-10.164c5.613 0 10.164 4.55 10.164 10.164"/><path d="M40.391 50c-.031 3.797-2.422 7.344-6.035 8.633-3.664 1.308-7.754.176-10.254-2.805-2.48-2.96-2.742-7.344-.742-10.617 1.964-3.234 5.879-4.992 9.601-4.238 4.285.87 7.399 4.66 7.43 9.027.008 1.258 1.965 1.258 1.953 0-.031-4.668-2.969-8.848-7.344-10.477-4.328-1.602-9.433-.215-12.352 3.36-2.969 3.632-3.43 8.847-.969 12.89 2.442 4.016 7.22 6.055 11.805 5.137 5.125-1.035 8.829-5.723 8.868-10.906 0-1.262-1.953-1.262-1.961-.004zM41.367 84.812c0 5.617-4.55 10.168-10.164 10.168a10.166 10.166 0 0 1-10.168-10.168c0-5.613 4.55-10.164 10.168-10.164 5.613 0 10.164 4.55 10.164 10.164"/><path d="M40.391 84.812c-.031 3.797-2.422 7.344-6.035 8.633-3.664 1.308-7.754.176-10.254-2.805-2.48-2.96-2.742-7.344-.742-10.617 1.964-3.234 5.879-4.992 9.601-4.238 4.285.875 7.399 4.664 7.43 9.027.008 1.258 1.965 1.258 1.953 0-.031-4.668-2.969-8.848-7.344-10.477-4.328-1.601-9.433-.215-12.352 3.36-2.969 3.632-3.43 8.847-.969 12.89 2.442 4.016 7.22 6.055 11.805 5.137 5.125-1.035 8.829-5.722 8.868-10.906 0-1.262-1.953-1.262-1.961-.004zM78.965 15.188c0 5.613-4.55 10.164-10.168 10.164-5.613 0-10.164-4.55-10.164-10.164 0-5.617 4.55-10.168 10.164-10.168 5.617 0 10.168 4.55 10.168 10.164"/><path d="M77.988 15.188c-.031 3.797-2.422 7.344-6.035 8.633-3.664 1.308-7.754.176-10.254-2.805-2.48-2.96-2.742-7.344-.742-10.617 1.964-3.234 5.879-4.992 9.601-4.238 4.285.87 7.403 4.66 7.43 9.027.008 1.258 1.965 1.258 1.953 0-.031-4.668-2.969-8.848-7.344-10.477-4.328-1.602-9.433-.215-12.352 3.36-2.969 3.632-3.43 8.847-.969 12.89 2.442 4.016 7.22 6.055 11.805 5.137 5.125-1.035 8.829-5.722 8.868-10.906.004-1.265-1.95-1.265-1.961-.004zM78.965 50c0 5.613-4.55 10.164-10.168 10.164-5.613 0-10.164-4.55-10.164-10.164s4.55-10.164 10.164-10.164c5.617 0 10.168 4.55 10.168 10.164"/><path d="M77.988 50c-.031 3.797-2.422 7.344-6.035 8.633-3.664 1.308-7.754.176-10.254-2.805-2.48-2.96-2.742-7.344-.742-10.617 1.964-3.234 5.879-4.992 9.601-4.238 4.285.87 7.403 4.66 7.43 9.027.008 1.258 1.965 1.258 1.953 0-.031-4.668-2.969-8.848-7.344-10.477-4.328-1.602-9.433-.215-12.352 3.36-2.969 3.632-3.43 8.847-.969 12.89 2.442 4.016 7.22 6.055 11.805 5.137 5.125-1.035 8.829-5.723 8.868-10.906.004-1.262-1.95-1.262-1.961-.004zM78.965 84.812c0 5.617-4.55 10.168-10.168 10.168-5.613 0-10.164-4.55-10.164-10.168 0-5.613 4.55-10.164 10.164-10.164 5.617 0 10.168 4.55 10.168 10.164"/><path d="M77.988 84.812c-.031 3.797-2.422 7.344-6.035 8.633-3.664 1.308-7.754.176-10.254-2.805-2.48-2.96-2.742-7.344-.742-10.617 1.964-3.234 5.879-4.992 9.601-4.238 4.285.875 7.403 4.664 7.43 9.027.008 1.258 1.965 1.258 1.953 0-.031-4.668-2.969-8.848-7.344-10.477-4.328-1.601-9.433-.215-12.352 3.36-2.969 3.632-3.43 8.847-.969 12.89 2.442 4.016 7.22 6.055 11.805 5.137C76.206 94.687 79.91 90 79.95 84.816c.004-1.262-1.95-1.262-1.961-.004z"/></svg>