<svg xmlns="http://www.w3.org/2000/svg" viewBox="-79 0 512 512">
  <path fill="#e3e4d8" d="M353.102 485.516H0V0h273.656l79.446 79.45zm0 0"/>
  <path fill="#d0cebd" d="M273.656 0v79.45h79.446zm0 0"/>
  <path fill="#b53438" d="M0 353.102h353.102V512H0zm0 0"/>
  <g fill="#fff">
    <path d="M52.965 485.516c-4.871 0-8.828-3.954-8.828-8.825v-88.277a8.829 8.829 0 0 1 17.656 0v88.277c0 4.872-3.953 8.825-8.828 8.825zm0 0M300.137 397.242h-52.965c-4.871 0-8.828-3.957-8.828-8.828 0-4.875 3.957-8.828 8.828-8.828h52.965a8.829 8.829 0 0 1 0 17.656zm0 0M300.137 441.379h-52.965c-4.871 0-8.828-3.953-8.828-8.828 0-4.871 3.957-8.828 8.828-8.828h52.965a8.829 8.829 0 0 1 0 17.656zm0 0"/>
    <path d="M247.172 485.516c-4.871 0-8.828-3.954-8.828-8.825v-88.277a8.829 8.829 0 0 1 17.656 0v88.277c0 4.872-3.953 8.825-8.828 8.825zm0 0"/>
  </g>
  <path fill="#b53438" d="M170.203 95.137c-.863.281-11.695 15.261.848 27.937 8.351-18.37-.465-28.054-.848-27.937m5.344 73.523c-6.297 21.496-14.602 44.703-23.527 65.711 18.378-7.043 38.375-13.195 57.14-17.547-11.87-13.62-23.738-30.633-33.613-48.164m65.71 57.176c7.169 5.445 8.915 8.2 13.614 8.2 2.055 0 7.926-.087 10.637-3.829 1.316-1.82 1.828-2.984 2.02-3.594-1.075-.574-2.516-1.71-10.337-1.71-4.449 0-10.027.19-15.933.933M121.3 264.437c-18.805 10.426-26.465 19-27.012 23.836-.09.805-.328 2.907 3.785 6.012 1.317-.414 8.969-3.86 23.227-29.848m-23.422 44.528c-3.063 0-6-.98-8.508-2.832-9.156-6.797-10.39-14.348-9.808-19.492 1.597-14.133 19.304-28.946 52.648-44.032 13.23-28.636 25.82-63.922 33.324-93.398-8.773-18.871-17.312-43.352-11.097-57.715 2.18-5.031 4.91-8.894 9.976-10.566 2.012-.653 7.078-1.48 8.941-1.48 4.618 0 9.051 5.507 11.184 9.09 3.973 6.647 3.992 14.39 3.363 21.858-.609 7.254-1.843 14.47-3.265 21.602-1.04 5.242-2.215 10.46-3.469 15.66 11.855 24.176 28.645 48.817 44.746 65.684 11.54-2.055 21.461-3.098 29.547-3.098 13.762 0 22.121 3.168 25.52 9.691 2.828 5.403 1.66 11.727-3.434 18.77-4.899 6.77-11.64 10.344-19.524 10.344-10.71 0-23.156-6.672-37.05-19.852-24.957 5.156-54.098 14.344-77.657 24.516-7.355 15.41-14.398 27.824-20.964 36.933-8.997 12.5-16.774 18.317-24.473 18.317"/>
  <path fill="#fff" d="M79.45 450.207H52.964c-4.871 0-8.828-3.953-8.828-8.828v-52.965c0-4.875 3.957-8.828 8.828-8.828h26.484c19.473 0 35.309 15.836 35.309 35.312 0 19.473-15.836 35.309-35.309 35.309zm-17.657-17.656h17.656c9.735 0 17.653-7.918 17.653-17.653 0-9.738-7.918-17.656-17.653-17.656H61.793zm0 0M158.898 485.516h-8.828c-4.875 0-8.828-3.954-8.828-8.825v-88.277a8.829 8.829 0 0 1 8.828-8.828h8.828c29.2 0 52.965 23.754 52.965 52.965 0 29.21-23.765 52.965-52.965 52.965zm0-17.653h.086zm0-70.62v70.62c19.473 0 35.309-15.84 35.309-35.312 0-19.473-15.836-35.309-35.309-35.309zm0 0"/>
</svg>