<svg xmlns="http://www.w3.org/2000/svg" viewBox="-79 0 512 512">
  <path fill="#e3e4d8" d="M353.102 485.516H0V0h273.656l79.446 79.45zm0 0"/>
  <path fill="#d0cebd" d="M273.656 0v79.45h79.446zm0 0"/>
  <path fill="#82c288" d="M0 353.102h353.102V512H0zm0 0"/>
  <path fill="#fff" d="M203.035 485.516H150.07c-4.875 0-8.828-3.954-8.828-8.825a8.829 8.829 0 0 1 8.828-8.828h52.965c4.871 0 8.828 3.953 8.828 8.828 0 4.872-3.957 8.825-8.828 8.825zm0 0"/>
  <path fill="#fff" d="M150.07 485.516c-4.875 0-8.828-3.954-8.828-8.825v-88.277a8.829 8.829 0 0 1 17.656 0v88.277c0 4.872-3.957 8.825-8.828 8.825zm0 0"/>
  <g fill="#a09893">
    <path d="M123.586 167.723H52.965c-4.871 0-8.828-3.953-8.828-8.825v-35.312c0-4.871 3.957-8.828 8.828-8.828h70.62c4.876 0 8.83 3.957 8.83 8.828v35.312c0 4.872-3.954 8.825-8.83 8.825zM61.793 150.07h52.965v-17.656H61.793zm0 0"/>
    <path d="M123.586 203.035H52.965c-4.871 0-8.828-3.957-8.828-8.828v-35.309c0-4.875 3.957-8.828 8.828-8.828h70.62a8.829 8.829 0 0 1 8.83 8.828v35.309c0 4.871-3.954 8.828-8.83 8.828zM61.793 185.38h52.965v-17.656H61.793zm0 0"/>
    <path d="M300.137 203.035H123.586c-4.871 0-8.828-3.957-8.828-8.828v-35.309c0-4.875 3.957-8.828 8.828-8.828h176.55a8.829 8.829 0 0 1 8.829 8.828v35.309c0 4.871-3.953 8.828-8.828 8.828zM132.414 185.38H291.31v-17.656H132.414zm0 0"/>
    <path d="M123.586 238.344H52.965c-4.871 0-8.828-3.953-8.828-8.828v-35.309c0-4.871 3.957-8.828 8.828-8.828h70.62c4.876 0 8.83 3.957 8.83 8.828v35.309a8.829 8.829 0 0 1-8.83 8.828zM61.793 220.69h52.965v-17.656H61.793zm0 0"/>
    <path d="M300.137 238.344H123.586c-4.871 0-8.828-3.953-8.828-8.828v-35.309c0-4.871 3.957-8.828 8.828-8.828h176.55c4.876 0 8.829 3.957 8.829 8.828v35.309a8.829 8.829 0 0 1-8.828 8.828zM132.414 220.69H291.31v-17.656H132.414zm0 0"/>
    <path d="M123.586 273.656H52.965c-4.871 0-8.828-3.957-8.828-8.828v-35.312c0-4.871 3.957-8.825 8.828-8.825h70.62c4.876 0 8.83 3.954 8.83 8.825v35.312c0 4.871-3.954 8.828-8.83 8.828zM61.793 256h52.965v-17.656H61.793zm0 0"/>
    <path d="M300.137 273.656H123.586c-4.871 0-8.828-3.957-8.828-8.828v-35.312c0-4.871 3.957-8.825 8.828-8.825h176.55c4.876 0 8.829 3.954 8.829 8.825v35.312c0 4.871-3.953 8.828-8.828 8.828zM132.414 256H291.31v-17.656H132.414zm0 0"/>
    <path d="M123.586 308.965H52.965c-4.871 0-8.828-3.953-8.828-8.828v-35.309c0-4.875 3.957-8.828 8.828-8.828h70.62a8.829 8.829 0 0 1 8.83 8.828v35.309a8.829 8.829 0 0 1-8.83 8.828zm-61.793-17.656h52.965v-17.653H61.793zm0 0"/>
    <path d="M300.137 308.965H123.586c-4.871 0-8.828-3.953-8.828-8.828v-35.309c0-4.875 3.957-8.828 8.828-8.828h176.55a8.829 8.829 0 0 1 8.829 8.828v35.309a8.829 8.829 0 0 1-8.828 8.828zm-167.723-17.656H291.31v-17.653H132.414zm0 0"/>
  </g>
  <path fill="#fff" d="M52.957 485.516a8.713 8.713 0 0 1-4.527-1.262c-4.188-2.508-5.535-7.926-3.032-12.11l52.97-88.277c2.503-4.183 7.925-5.535 12.109-3.027 4.183 2.508 5.535 7.926 3.027 12.113l-52.965 88.274a8.83 8.83 0 0 1-7.582 4.289zm0 0"/>
  <path fill="#fff" d="M105.941 485.516a8.807 8.807 0 0 1-7.574-4.282l-52.969-88.273c-2.503-4.184-1.156-9.606 3.032-12.113a8.815 8.815 0 0 1 12.11 3.027l52.964 88.277c2.508 4.184 1.156 9.606-3.027 12.114a8.88 8.88 0 0 1-4.536 1.25zm0 0M278.07 485.516h-30.898c-4.871 0-8.828-3.954-8.828-8.825 0-4.875 3.957-8.828 8.828-8.828h30.898c7.301 0 13.239-5.941 13.239-13.242 0-7.3-5.938-13.242-13.239-13.242h-8.828c-17.039 0-30.898-13.86-30.898-30.895 0-17.039 13.86-30.898 30.898-30.898h30.895a8.829 8.829 0 0 1 0 17.656h-30.895c-7.3 0-13.242 5.942-13.242 13.242 0 7.297 5.941 13.239 13.242 13.239h8.828c17.035 0 30.895 13.859 30.895 30.898 0 17.035-13.86 30.895-30.895 30.895zm0 0"/>
</svg>